<?xml version="1.0" encoding="UTF-8"?>
<svg xmlns="http://www.w3.org/2000/svg" id="Layer_1" version="1.1" viewBox="0 0 306.06 306.06">
  <defs>
    <style>
      .st0 {
        fill: #7f6c60;
      }
    </style>
  </defs>
  <path class="st0" d="M297.82,148.46c-5.4-.17-10.72-.63-15.96-1.38-3.03-66.4-56.49-119.86-122.89-122.89-.74-5.24-1.21-10.56-1.38-15.96-.08-2.47-2.09-4.44-4.57-4.44h0c-2.47,0-4.49,1.97-4.57,4.44-.17,5.4-.63,10.72-1.38,15.96-66.4,3.03-119.86,56.49-122.89,122.89-5.24.74-10.56,1.21-15.96,1.38-2.47.08-4.44,2.09-4.44,4.57h0c0,2.47,1.97,4.49,4.44,4.57,5.4.17,10.72.63,15.96,1.38,3.03,66.4,56.49,119.86,122.89,122.89.74,5.24,1.21,10.56,1.38,15.96.08,2.47,2.09,4.44,4.57,4.44h0c2.47,0,4.49-1.97,4.57-4.44.17-5.4.63-10.72,1.38-15.96,66.4-3.03,119.86-56.49,122.89-122.89,5.24-.74,10.56-1.21,15.96-1.38,2.47-.08,4.44-2.09,4.44-4.57h0c0-2.47-1.97-4.49-4.44-4.57ZM272.76,145.5c-56.18-11.68-100.53-56.03-112.21-112.21,60.17,3.74,108.47,52.04,112.21,112.21ZM40.79,153.03c55.11-13.66,98.57-57.13,112.24-112.24,13.66,55.11,57.13,98.57,112.24,112.24-55.11,13.66-98.57,57.13-112.24,112.24-13.66-55.11-57.13-98.57-112.24-112.24ZM145.5,33.3c-11.68,56.18-56.03,100.53-112.21,112.21,3.74-60.17,52.04-108.47,112.21-112.21ZM33.29,160.56c56.18,11.68,100.53,56.03,112.21,112.21-60.17-3.74-108.47-52.04-112.21-112.21ZM160.55,272.76c11.68-56.18,56.03-100.53,112.21-112.21-3.74,60.17-52.04,108.47-112.21,112.21Z"></path>
  <path class="st0" d="M153.03,126.73c-14.5,0-26.3,11.8-26.3,26.3s11.8,26.3,26.3,26.3,26.3-11.8,26.3-26.3-11.8-26.3-26.3-26.3ZM153.03,170.33c-9.54,0-17.3-7.76-17.3-17.3s7.76-17.3,17.3-17.3,17.3,7.76,17.3,17.3-7.76,17.3-17.3,17.3Z"></path>
</svg>
